<?xml version="1.0" encoding="utf-8" standalone="no"?>
<!DOCTYPE svg PUBLIC "-//W3C//DTD SVG 1.1//EN"
  "http://www.w3.org/Graphics/SVG/1.1/DTD/svg11.dtd">
<svg xmlns:xlink="http://www.w3.org/1999/xlink" width="688.59739pt" height="204.679997pt" viewBox="0 0 688.59739 204.679997" xmlns="http://www.w3.org/2000/svg" version="1.1">
 <metadata>
  <rdf:RDF xmlns:dc="http://purl.org/dc/elements/1.1/" xmlns:cc="http://creativecommons.org/ns#" xmlns:rdf="http://www.w3.org/1999/02/22-rdf-syntax-ns#">
   <cc:Work>
    <dc:type rdf:resource="http://purl.org/dc/dcmitype/StillImage"/>
    <dc:date>2025-06-21T00:11:11.246480</dc:date>
    <dc:format>image/svg+xml</dc:format>
    <dc:creator>
     <cc:Agent>
      <dc:title>Matplotlib v3.10.3, https://matplotlib.org/</dc:title>
     </cc:Agent>
    </dc:creator>
   </cc:Work>
  </rdf:RDF>
 </metadata>
 <defs>
  <style type="text/css">*{stroke-linejoin: round; stroke-linecap: butt}</style>
 </defs>
 <g id="figure_1">
  <g id="patch_1">
   <path d="M 0 204.679997 
L 688.59739 204.679997 
L 688.59739 0 
L 0 0 
z
" style="fill: #ffffff"/>
  </g>
  <g id="axes_1">
   <g id="line2d_1">
    <path d="M 145.205364 61.644799 
L 613.380757 61.644799 
" clip-path="url(#p89886f5b26)" style="fill: none; stroke: #000000; stroke-width: 2; stroke-linecap: square"/>
   </g>
   <g id="line2d_2">
    <path d="M 145.205364 107.998799 
L 613.380757 107.998799 
" clip-path="url(#p89886f5b26)" style="fill: none; stroke: #000000; stroke-width: 2; stroke-linecap: square"/>
   </g>
   <g id="line2d_3">
    <path d="M 145.205364 154.352798 
L 613.380757 154.352798 
" clip-path="url(#p89886f5b26)" style="fill: none; stroke: #000000; stroke-width: 2; stroke-linecap: square"/>
   </g>
   <g id="patch_2">
    <path d="M 140.569964 38.467799 
L -1018.280021 38.467799 
L -1018.280021 223.883797 
L 140.569964 223.883797 
z
" clip-path="url(#p89886f5b26)" style="fill: #ffffff; stroke: #ffffff; stroke-width: 1.5; stroke-linejoin: miter"/>
   </g>
   <g id="line2d_4">
    <path d="M 239.767522 107.998799 
L 239.767522 61.644799 
" clip-path="url(#p89886f5b26)" style="fill: none; stroke: #33b1ff; stroke-width: 2; stroke-linecap: square"/>
   </g>
   <g id="line2d_5">
    <path d="M 239.767522 107.998799 
L 239.767522 61.644799 
" clip-path="url(#p89886f5b26)" style="fill: none; stroke: #33b1ff; stroke-width: 2; stroke-linecap: square"/>
   </g>
   <g id="line2d_6">
    <path d="M 332.475521 154.352798 
L 332.475521 61.644799 
" clip-path="url(#p89886f5b26)" style="fill: none; stroke: #33b1ff; stroke-width: 2; stroke-linecap: square"/>
   </g>
   <g id="line2d_7">
    <path d="M 332.475521 154.352798 
L 332.475521 61.644799 
" clip-path="url(#p89886f5b26)" style="fill: none; stroke: #33b1ff; stroke-width: 2; stroke-linecap: square"/>
   </g>
   <g id="line2d_8">
    <path d="M 471.537519 154.352798 
L 471.537519 107.998799 
" clip-path="url(#p89886f5b26)" style="fill: none; stroke: #33b1ff; stroke-width: 2; stroke-linecap: square"/>
   </g>
   <g id="line2d_9">
    <path d="M 471.537519 154.352798 
L 471.537519 107.998799 
" clip-path="url(#p89886f5b26)" style="fill: none; stroke: #33b1ff; stroke-width: 2; stroke-linecap: square"/>
   </g>
   <g id="line2d_10">
    <path d="M 587.422518 61.644799 
L 587.422518 154.352798 
" clip-path="url(#p89886f5b26)" style="fill: none; stroke: #002d9c; stroke-width: 2; stroke-linecap: square"/>
   </g>
   <g id="line2d_11">
    <path d="M 581.396498 67.670819 
L 593.448538 55.618779 
" clip-path="url(#p89886f5b26)" style="fill: none; stroke: #002d9c; stroke-width: 2; stroke-linecap: square"/>
   </g>
   <g id="line2d_12">
    <path d="M 581.396498 55.618779 
L 593.448538 67.670819 
" clip-path="url(#p89886f5b26)" style="fill: none; stroke: #002d9c; stroke-width: 2; stroke-linecap: square"/>
   </g>
   <g id="line2d_13">
    <path d="M 581.396498 160.378818 
L 593.448538 148.326778 
" clip-path="url(#p89886f5b26)" style="fill: none; stroke: #002d9c; stroke-width: 2; stroke-linecap: square"/>
   </g>
   <g id="line2d_14">
    <path d="M 581.396498 148.326778 
L 593.448538 160.378818 
" clip-path="url(#p89886f5b26)" style="fill: none; stroke: #002d9c; stroke-width: 2; stroke-linecap: square"/>
   </g>
   <g id="patch_3">
    <path d="M 155.171474 76.709849 
L 185.301573 76.709849 
L 185.301573 46.579749 
L 155.171474 46.579749 
z
" clip-path="url(#p89886f5b26)" style="fill: #fa4d56; stroke: #fa4d56; stroke-width: 1.5; stroke-linejoin: miter"/>
   </g>
   <g id="patch_4">
    <path d="M 239.767522 112.518314 
C 240.966112 112.518314 242.115771 112.042109 242.963302 111.194578 
C 243.810833 110.347048 244.287037 109.197388 244.287037 107.998799 
C 244.287037 106.800209 243.810833 105.65055 242.963302 104.803019 
C 242.115771 103.955488 240.966112 103.479284 239.767522 103.479284 
C 238.568933 103.479284 237.419273 103.955488 236.571743 104.803019 
C 235.724212 105.65055 235.248007 106.800209 235.248007 107.998799 
C 235.248007 109.197388 235.724212 110.347048 236.571743 111.194578 
C 237.419273 112.042109 238.568933 112.518314 239.767522 112.518314 
z
" clip-path="url(#p89886f5b26)" style="fill: #33b1ff; stroke: #33b1ff; stroke-width: 1.5; stroke-linejoin: miter"/>
   </g>
   <g id="patch_5">
    <path d="M 239.767522 66.164314 
C 240.966112 66.164314 242.115771 65.68811 242.963302 64.840579 
C 243.810833 63.993048 244.287037 62.843389 244.287037 61.644799 
C 244.287037 60.44621 243.810833 59.29655 242.963302 58.44902 
C 242.115771 57.601489 240.966112 57.125284 239.767522 57.125284 
C 238.568933 57.125284 237.419273 57.601489 236.571743 58.44902 
C 235.724212 59.29655 235.248007 60.44621 235.248007 61.644799 
C 235.248007 62.843389 235.724212 63.993048 236.571743 64.840579 
C 237.419273 65.68811 238.568933 66.164314 239.767522 66.164314 
z
" clip-path="url(#p89886f5b26)" style="fill: #33b1ff; stroke: #33b1ff; stroke-width: 1.5; stroke-linejoin: miter"/>
   </g>
   <g id="patch_6">
    <path d="M 332.475521 158.872313 
C 333.674111 158.872313 334.82377 158.396108 335.671301 157.548578 
C 336.518832 156.701047 336.995036 155.551387 336.995036 154.352798 
C 336.995036 153.154209 336.518832 152.004549 335.671301 151.157018 
C 334.82377 150.309488 333.674111 149.833283 332.475521 149.833283 
C 331.276932 149.833283 330.127272 150.309488 329.279742 151.157018 
C 328.432211 152.004549 327.956006 153.154209 327.956006 154.352798 
C 327.956006 155.551387 328.432211 156.701047 329.279742 157.548578 
C 330.127272 158.396108 331.276932 158.872313 332.475521 158.872313 
z
" clip-path="url(#p89886f5b26)" style="fill: #33b1ff; stroke: #33b1ff; stroke-width: 1.5; stroke-linejoin: miter"/>
   </g>
   <g id="patch_7">
    <path d="M 332.475521 66.164314 
C 333.674111 66.164314 334.82377 65.68811 335.671301 64.840579 
C 336.518832 63.993048 336.995036 62.843389 336.995036 61.644799 
C 336.995036 60.44621 336.518832 59.29655 335.671301 58.44902 
C 334.82377 57.601489 333.674111 57.125284 332.475521 57.125284 
C 331.276932 57.125284 330.127272 57.601489 329.279742 58.44902 
C 328.432211 59.29655 327.956006 60.44621 327.956006 61.644799 
C 327.956006 62.843389 328.432211 63.993048 329.279742 64.840579 
C 330.127272 65.68811 331.276932 66.164314 332.475521 66.164314 
z
" clip-path="url(#p89886f5b26)" style="fill: #33b1ff; stroke: #33b1ff; stroke-width: 1.5; stroke-linejoin: miter"/>
   </g>
   <g id="patch_8">
    <path d="M 386.94147 123.063848 
L 417.07157 123.063848 
L 417.07157 92.933749 
L 386.94147 92.933749 
z
" clip-path="url(#p89886f5b26)" style="fill: #fa4d56; stroke: #fa4d56; stroke-width: 1.5; stroke-linejoin: miter"/>
   </g>
   <g id="patch_9">
    <path d="M 471.537519 158.872313 
C 472.736109 158.872313 473.885768 158.396108 474.733299 157.548578 
C 475.58083 156.701047 476.057034 155.551387 476.057034 154.352798 
C 476.057034 153.154209 475.58083 152.004549 474.733299 151.157018 
C 473.885768 150.309488 472.736109 149.833283 471.537519 149.833283 
C 470.33893 149.833283 469.18927 150.309488 468.34174 151.157018 
C 467.494209 152.004549 467.018004 153.154209 467.018004 154.352798 
C 467.018004 155.551387 467.494209 156.701047 468.34174 157.548578 
C 469.18927 158.396108 470.33893 158.872313 471.537519 158.872313 
z
" clip-path="url(#p89886f5b26)" style="fill: #33b1ff; stroke: #33b1ff; stroke-width: 1.5; stroke-linejoin: miter"/>
   </g>
   <g id="patch_10">
    <path d="M 471.537519 112.518314 
C 472.736109 112.518314 473.885768 112.042109 474.733299 111.194578 
C 475.58083 110.347048 476.057034 109.197388 476.057034 107.998799 
C 476.057034 106.800209 475.58083 105.65055 474.733299 104.803019 
C 473.885768 103.955488 472.736109 103.479284 471.537519 103.479284 
C 470.33893 103.479284 469.18927 103.955488 468.34174 104.803019 
C 467.494209 105.65055 467.018004 106.800209 467.018004 107.998799 
C 467.018004 109.197388 467.494209 110.347048 468.34174 111.194578 
C 469.18927 112.042109 470.33893 112.518314 471.537519 112.518314 
z
" clip-path="url(#p89886f5b26)" style="fill: #33b1ff; stroke: #33b1ff; stroke-width: 1.5; stroke-linejoin: miter"/>
   </g>
   <g id="patch_11">
    <path d="M 526.003469 169.417848 
L 556.133568 169.417848 
L 556.133568 139.287748 
L 526.003469 139.287748 
z
" clip-path="url(#p89886f5b26)" style="fill: #fa4d56; stroke: #fa4d56; stroke-width: 1.5; stroke-linejoin: miter"/>
   </g>
   <g id="text_1">
    <g clip-path="url(#p89886f5b26)">
     <!-- ${q}_{0}$ -->
     <g transform="translate(117.897064 66.095776) scale(0.1625 -0.1625)">
      <defs>
       <path id="DejaVuSans-Oblique-71" d="M 2669 525 
Q 2438 222 2123 65 
Q 1809 -91 1428 -91 
Q 897 -91 595 267 
Q 294 625 294 1253 
Q 294 1759 480 2231 
Q 666 2703 1013 3078 
Q 1238 3322 1530 3453 
Q 1822 3584 2144 3584 
Q 2531 3584 2781 3431 
Q 3031 3278 3144 2969 
L 3244 3494 
L 3822 3494 
L 2888 -1319 
L 2309 -1319 
L 2669 525 
z
M 891 1338 
Q 891 875 1084 633 
Q 1278 391 1644 391 
Q 2188 391 2572 911 
Q 2956 1431 2956 2175 
Q 2956 2625 2757 2864 
Q 2559 3103 2188 3103 
Q 1916 3103 1684 2976 
Q 1453 2850 1281 2606 
Q 1100 2350 995 2006 
Q 891 1663 891 1338 
z
" transform="scale(0.015625)"/>
       <path id="DejaVuSans-30" d="M 2034 4250 
Q 1547 4250 1301 3770 
Q 1056 3291 1056 2328 
Q 1056 1369 1301 889 
Q 1547 409 2034 409 
Q 2525 409 2770 889 
Q 3016 1369 3016 2328 
Q 3016 3291 2770 3770 
Q 2525 4250 2034 4250 
z
M 2034 4750 
Q 2819 4750 3233 4129 
Q 3647 3509 3647 2328 
Q 3647 1150 3233 529 
Q 2819 -91 2034 -91 
Q 1250 -91 836 529 
Q 422 1150 422 2328 
Q 422 3509 836 4129 
Q 1250 4750 2034 4750 
z
" transform="scale(0.015625)"/>
      </defs>
      <use xlink:href="#DejaVuSans-Oblique-71"/>
      <use xlink:href="#DejaVuSans-30" transform="translate(63.476562 -16.40625) scale(0.7)"/>
     </g>
    </g>
   </g>
   <g id="text_2">
    <g clip-path="url(#p89886f5b26)">
     <!-- ${q}_{1}$ -->
     <g transform="translate(117.897064 112.449775) scale(0.1625 -0.1625)">
      <defs>
       <path id="DejaVuSans-31" d="M 794 531 
L 1825 531 
L 1825 4091 
L 703 3866 
L 703 4441 
L 1819 4666 
L 2450 4666 
L 2450 531 
L 3481 531 
L 3481 0 
L 794 0 
L 794 531 
z
" transform="scale(0.015625)"/>
      </defs>
      <use xlink:href="#DejaVuSans-Oblique-71"/>
      <use xlink:href="#DejaVuSans-31" transform="translate(63.476562 -16.40625) scale(0.7)"/>
     </g>
    </g>
   </g>
   <g id="text_3">
    <g clip-path="url(#p89886f5b26)">
     <!-- ${q}_{2}$ -->
     <g transform="translate(117.897064 158.803775) scale(0.1625 -0.1625)">
      <defs>
       <path id="DejaVuSans-32" d="M 1228 531 
L 3431 531 
L 3431 0 
L 469 0 
L 469 531 
Q 828 903 1448 1529 
Q 2069 2156 2228 2338 
Q 2531 2678 2651 2914 
Q 2772 3150 2772 3378 
Q 2772 3750 2511 3984 
Q 2250 4219 1831 4219 
Q 1534 4219 1204 4116 
Q 875 4013 500 3803 
L 500 4441 
Q 881 4594 1212 4672 
Q 1544 4750 1819 4750 
Q 2544 4750 2975 4387 
Q 3406 4025 3406 3419 
Q 3406 3131 3298 2873 
Q 3191 2616 2906 2266 
Q 2828 2175 2409 1742 
Q 1991 1309 1228 531 
z
" transform="scale(0.015625)"/>
      </defs>
      <use xlink:href="#DejaVuSans-Oblique-71"/>
      <use xlink:href="#DejaVuSans-32" transform="translate(63.476562 -16.40625) scale(0.7)"/>
     </g>
    </g>
   </g>
   <g id="text_4">
    <g clip-path="url(#p89886f5b26)">
     <!-- H -->
     <g transform="translate(165.34832 65.231987) scale(0.13 -0.13)">
      <defs>
       <path id="DejaVuSans-48" d="M 628 4666 
L 1259 4666 
L 1259 2753 
L 3553 2753 
L 3553 4666 
L 4184 4666 
L 4184 0 
L 3553 0 
L 3553 2222 
L 1259 2222 
L 1259 0 
L 628 0 
L 628 4666 
z
" transform="scale(0.015625)"/>
      </defs>
      <use xlink:href="#DejaVuSans-48"/>
     </g>
    </g>
   </g>
   <g id="text_5">
    <g clip-path="url(#p89886f5b26)">
     <!-- P ($\pi$/2) -->
     <g transform="translate(245.772662 83.947449) scale(0.08 -0.08)">
      <defs>
       <path id="DejaVuSans-50" d="M 1259 4147 
L 1259 2394 
L 2053 2394 
Q 2494 2394 2734 2622 
Q 2975 2850 2975 3272 
Q 2975 3691 2734 3919 
Q 2494 4147 2053 4147 
L 1259 4147 
z
M 628 4666 
L 2053 4666 
Q 2838 4666 3239 4311 
Q 3641 3956 3641 3272 
Q 3641 2581 3239 2228 
Q 2838 1875 2053 1875 
L 1259 1875 
L 1259 0 
L 628 0 
L 628 4666 
z
" transform="scale(0.015625)"/>
       <path id="DejaVuSans-20" transform="scale(0.015625)"/>
       <path id="DejaVuSans-28" d="M 1984 4856 
Q 1566 4138 1362 3434 
Q 1159 2731 1159 2009 
Q 1159 1288 1364 580 
Q 1569 -128 1984 -844 
L 1484 -844 
Q 1016 -109 783 600 
Q 550 1309 550 2009 
Q 550 2706 781 3412 
Q 1013 4119 1484 4856 
L 1984 4856 
z
" transform="scale(0.015625)"/>
       <path id="DejaVuSans-Oblique-3c0" d="M 584 3500 
L 3938 3500 
L 3825 2925 
L 3384 2925 
L 2966 775 
Q 2922 550 2981 450 
Q 3038 353 3209 353 
Q 3256 353 3325 363 
Q 3397 369 3419 372 
L 3338 -44 
Q 3222 -84 3103 -103 
Q 2981 -122 2866 -122 
Q 2491 -122 2388 81 
Q 2284 288 2391 838 
L 2797 2925 
L 1506 2925 
L 938 0 
L 350 0 
L 919 2925 
L 472 2925 
L 584 3500 
z
" transform="scale(0.015625)"/>
       <path id="DejaVuSans-2f" d="M 1625 4666 
L 2156 4666 
L 531 -594 
L 0 -594 
L 1625 4666 
z
" transform="scale(0.015625)"/>
       <path id="DejaVuSans-29" d="M 513 4856 
L 1013 4856 
Q 1481 4119 1714 3412 
Q 1947 2706 1947 2009 
Q 1947 1309 1714 600 
Q 1481 -109 1013 -844 
L 513 -844 
Q 928 -128 1133 580 
Q 1338 1288 1338 2009 
Q 1338 2731 1133 3434 
Q 928 4138 513 4856 
z
" transform="scale(0.015625)"/>
      </defs>
      <use xlink:href="#DejaVuSans-50" transform="translate(0 0.125)"/>
      <use xlink:href="#DejaVuSans-20" transform="translate(60.302734 0.125)"/>
      <use xlink:href="#DejaVuSans-28" transform="translate(92.089844 0.125)"/>
      <use xlink:href="#DejaVuSans-Oblique-3c0" transform="translate(131.103516 0.125)"/>
      <use xlink:href="#DejaVuSans-2f" transform="translate(191.308594 0.125)"/>
      <use xlink:href="#DejaVuSans-32" transform="translate(221.375 0.125)"/>
      <use xlink:href="#DejaVuSans-29" transform="translate(284.998047 0.125)"/>
     </g>
    </g>
   </g>
   <g id="text_6">
    <g clip-path="url(#p89886f5b26)">
     <!-- P ($\pi$/4) -->
     <g transform="translate(338.360661 130.301448) scale(0.08 -0.08)">
      <defs>
       <path id="DejaVuSans-34" d="M 2419 4116 
L 825 1625 
L 2419 1625 
L 2419 4116 
z
M 2253 4666 
L 3047 4666 
L 3047 1625 
L 3713 1625 
L 3713 1100 
L 3047 1100 
L 3047 0 
L 2419 0 
L 2419 1100 
L 313 1100 
L 313 1709 
L 2253 4666 
z
" transform="scale(0.015625)"/>
      </defs>
      <use xlink:href="#DejaVuSans-50" transform="translate(0 0.125)"/>
      <use xlink:href="#DejaVuSans-20" transform="translate(60.302734 0.125)"/>
      <use xlink:href="#DejaVuSans-28" transform="translate(92.089844 0.125)"/>
      <use xlink:href="#DejaVuSans-Oblique-3c0" transform="translate(131.103516 0.125)"/>
      <use xlink:href="#DejaVuSans-2f" transform="translate(191.308594 0.125)"/>
      <use xlink:href="#DejaVuSans-34" transform="translate(225 0.125)"/>
      <use xlink:href="#DejaVuSans-29" transform="translate(288.623047 0.125)"/>
     </g>
    </g>
   </g>
   <g id="text_7">
    <g clip-path="url(#p89886f5b26)">
     <!-- H -->
     <g transform="translate(397.118317 111.585986) scale(0.13 -0.13)">
      <use xlink:href="#DejaVuSans-48"/>
     </g>
    </g>
   </g>
   <g id="text_8">
    <g clip-path="url(#p89886f5b26)">
     <!-- P ($\pi$/2) -->
     <g transform="translate(477.542659 130.301448) scale(0.08 -0.08)">
      <use xlink:href="#DejaVuSans-50" transform="translate(0 0.125)"/>
      <use xlink:href="#DejaVuSans-20" transform="translate(60.302734 0.125)"/>
      <use xlink:href="#DejaVuSans-28" transform="translate(92.089844 0.125)"/>
      <use xlink:href="#DejaVuSans-Oblique-3c0" transform="translate(131.103516 0.125)"/>
      <use xlink:href="#DejaVuSans-2f" transform="translate(191.308594 0.125)"/>
      <use xlink:href="#DejaVuSans-32" transform="translate(221.375 0.125)"/>
      <use xlink:href="#DejaVuSans-29" transform="translate(284.998047 0.125)"/>
     </g>
    </g>
   </g>
   <g id="text_9">
    <g clip-path="url(#p89886f5b26)">
     <!-- H -->
     <g transform="translate(536.180315 157.939985) scale(0.13 -0.13)">
      <use xlink:href="#DejaVuSans-48"/>
     </g>
    </g>
   </g>
  </g>
 </g>
 <defs>
  <clipPath id="p89886f5b26">
   <rect x="87.796167" y="24.5616" width="530.21999" height="157.603598"/>
  </clipPath>
 </defs>
</svg>
