<?xml version="1.0" encoding="utf-8" standalone="no"?>
<!DOCTYPE svg PUBLIC "-//W3C//DTD SVG 1.1//EN"
  "http://www.w3.org/Graphics/SVG/1.1/DTD/svg11.dtd">
<svg xmlns:xlink="http://www.w3.org/1999/xlink" width="525.159509pt" height="204.679997pt" viewBox="0 0 525.159509 204.679997" xmlns="http://www.w3.org/2000/svg" version="1.1">
 <metadata>
  <rdf:RDF xmlns:dc="http://purl.org/dc/elements/1.1/" xmlns:cc="http://creativecommons.org/ns#" xmlns:rdf="http://www.w3.org/1999/02/22-rdf-syntax-ns#">
   <cc:Work>
    <dc:type rdf:resource="http://purl.org/dc/dcmitype/StillImage"/>
    <dc:date>2025-06-21T00:09:46.847804</dc:date>
    <dc:format>image/svg+xml</dc:format>
    <dc:creator>
     <cc:Agent>
      <dc:title>Matplotlib v3.10.3, https://matplotlib.org/</dc:title>
     </cc:Agent>
    </dc:creator>
   </cc:Work>
  </rdf:RDF>
 </metadata>
 <defs>
  <style type="text/css">*{stroke-linejoin: round; stroke-linecap: butt}</style>
 </defs>
 <g id="figure_1">
  <g id="patch_1">
   <path d="M 0 204.679997 
L 525.159509 204.679997 
L 525.159509 0 
L 0 0 
z
" style="fill: #ffffff"/>
  </g>
  <g id="axes_1">
   <g id="line2d_1">
    <path d="M 137.581864 61.644799 
L 466.695259 61.644799 
" clip-path="url(#p5ef6de9560)" style="fill: none; stroke: #000000; stroke-width: 2; stroke-linecap: square"/>
   </g>
   <g id="line2d_2">
    <path d="M 137.581864 107.998799 
L 466.695259 107.998799 
" clip-path="url(#p5ef6de9560)" style="fill: none; stroke: #000000; stroke-width: 2; stroke-linecap: square"/>
   </g>
   <g id="line2d_3">
    <path d="M 137.581864 154.352798 
L 466.695259 154.352798 
" clip-path="url(#p5ef6de9560)" style="fill: none; stroke: #000000; stroke-width: 2; stroke-linecap: square"/>
   </g>
   <g id="patch_2">
    <path d="M 132.946464 38.467799 
L -1025.903521 38.467799 
L -1025.903521 223.883797 
L 132.946464 223.883797 
z
" clip-path="url(#p5ef6de9560)" style="fill: #ffffff; stroke: #ffffff; stroke-width: 1.5; stroke-linejoin: miter"/>
   </g>
   <g id="line2d_4">
    <path d="M 208.967023 107.998799 
L 208.967023 61.644799 
" clip-path="url(#p5ef6de9560)" style="fill: none; stroke: #9f1853; stroke-width: 2; stroke-linecap: square"/>
   </g>
   <g id="line2d_5">
    <path d="M 255.321022 154.352798 
L 255.321022 61.644799 
" clip-path="url(#p5ef6de9560)" style="fill: none; stroke: #9f1853; stroke-width: 2; stroke-linecap: square"/>
   </g>
   <g id="line2d_6">
    <path d="M 348.029021 154.352798 
L 348.029021 107.998799 
" clip-path="url(#p5ef6de9560)" style="fill: none; stroke: #9f1853; stroke-width: 2; stroke-linecap: square"/>
   </g>
   <g id="line2d_7">
    <path d="M 440.73702 61.644799 
L 440.73702 154.352798 
" clip-path="url(#p5ef6de9560)" style="fill: none; stroke: #002d9c; stroke-width: 2; stroke-linecap: square"/>
   </g>
   <g id="line2d_8">
    <path d="M 434.711 67.670819 
L 446.76304 55.618779 
" clip-path="url(#p5ef6de9560)" style="fill: none; stroke: #002d9c; stroke-width: 2; stroke-linecap: square"/>
   </g>
   <g id="line2d_9">
    <path d="M 434.711 55.618779 
L 446.76304 67.670819 
" clip-path="url(#p5ef6de9560)" style="fill: none; stroke: #002d9c; stroke-width: 2; stroke-linecap: square"/>
   </g>
   <g id="line2d_10">
    <path d="M 434.711 160.378818 
L 446.76304 148.326778 
" clip-path="url(#p5ef6de9560)" style="fill: none; stroke: #002d9c; stroke-width: 2; stroke-linecap: square"/>
   </g>
   <g id="line2d_11">
    <path d="M 434.711 148.326778 
L 446.76304 160.378818 
" clip-path="url(#p5ef6de9560)" style="fill: none; stroke: #002d9c; stroke-width: 2; stroke-linecap: square"/>
   </g>
   <g id="patch_3">
    <path d="M 147.547974 76.709849 
L 177.678073 76.709849 
L 177.678073 46.579749 
L 147.547974 46.579749 
z
" clip-path="url(#p5ef6de9560)" style="fill: #fa4d56; stroke: #fa4d56; stroke-width: 1.5; stroke-linejoin: miter"/>
   </g>
   <g id="patch_4">
    <path d="M 208.967023 112.518314 
C 210.165612 112.518314 211.315272 112.042109 212.162802 111.194578 
C 213.010333 110.347048 213.486538 109.197388 213.486538 107.998799 
C 213.486538 106.800209 213.010333 105.65055 212.162802 104.803019 
C 211.315272 103.955488 210.165612 103.479284 208.967023 103.479284 
C 207.768433 103.479284 206.618774 103.955488 205.771243 104.803019 
C 204.923712 105.65055 204.447508 106.800209 204.447508 107.998799 
C 204.447508 109.197388 204.923712 110.347048 205.771243 111.194578 
C 206.618774 112.042109 207.768433 112.518314 208.967023 112.518314 
z
" clip-path="url(#p5ef6de9560)" style="fill: #9f1853; stroke: #9f1853; stroke-width: 1.5; stroke-linejoin: miter"/>
   </g>
   <g id="patch_5">
    <path d="M 193.901973 76.709849 
L 224.032073 76.709849 
L 224.032073 46.579749 
L 193.901973 46.579749 
z
" clip-path="url(#p5ef6de9560)" style="fill: #9f1853; stroke: #9f1853; stroke-width: 1.5; stroke-linejoin: miter"/>
   </g>
   <g id="patch_6">
    <path d="M 255.321022 158.872313 
C 256.519612 158.872313 257.669271 158.396108 258.516802 157.548578 
C 259.364333 156.701047 259.840537 155.551387 259.840537 154.352798 
C 259.840537 153.154209 259.364333 152.004549 258.516802 151.157018 
C 257.669271 150.309488 256.519612 149.833283 255.321022 149.833283 
C 254.122433 149.833283 252.972773 150.309488 252.125243 151.157018 
C 251.277712 152.004549 250.801507 153.154209 250.801507 154.352798 
C 250.801507 155.551387 251.277712 156.701047 252.125243 157.548578 
C 252.972773 158.396108 254.122433 158.872313 255.321022 158.872313 
z
" clip-path="url(#p5ef6de9560)" style="fill: #9f1853; stroke: #9f1853; stroke-width: 1.5; stroke-linejoin: miter"/>
   </g>
   <g id="patch_7">
    <path d="M 240.255972 76.709849 
L 270.386072 76.709849 
L 270.386072 46.579749 
L 240.255972 46.579749 
z
" clip-path="url(#p5ef6de9560)" style="fill: #9f1853; stroke: #9f1853; stroke-width: 1.5; stroke-linejoin: miter"/>
   </g>
   <g id="patch_8">
    <path d="M 286.609972 123.063848 
L 316.740071 123.063848 
L 316.740071 92.933749 
L 286.609972 92.933749 
z
" clip-path="url(#p5ef6de9560)" style="fill: #fa4d56; stroke: #fa4d56; stroke-width: 1.5; stroke-linejoin: miter"/>
   </g>
   <g id="patch_9">
    <path d="M 348.029021 158.872313 
C 349.22761 158.872313 350.37727 158.396108 351.224801 157.548578 
C 352.072331 156.701047 352.548536 155.551387 352.548536 154.352798 
C 352.548536 153.154209 352.072331 152.004549 351.224801 151.157018 
C 350.37727 150.309488 349.22761 149.833283 348.029021 149.833283 
C 346.830432 149.833283 345.680772 150.309488 344.833241 151.157018 
C 343.985711 152.004549 343.509506 153.154209 343.509506 154.352798 
C 343.509506 155.551387 343.985711 156.701047 344.833241 157.548578 
C 345.680772 158.396108 346.830432 158.872313 348.029021 158.872313 
z
" clip-path="url(#p5ef6de9560)" style="fill: #9f1853; stroke: #9f1853; stroke-width: 1.5; stroke-linejoin: miter"/>
   </g>
   <g id="patch_10">
    <path d="M 332.963971 123.063848 
L 363.094071 123.063848 
L 363.094071 92.933749 
L 332.963971 92.933749 
z
" clip-path="url(#p5ef6de9560)" style="fill: #9f1853; stroke: #9f1853; stroke-width: 1.5; stroke-linejoin: miter"/>
   </g>
   <g id="patch_11">
    <path d="M 379.317971 169.417848 
L 409.44807 169.417848 
L 409.44807 139.287748 
L 379.317971 139.287748 
z
" clip-path="url(#p5ef6de9560)" style="fill: #fa4d56; stroke: #fa4d56; stroke-width: 1.5; stroke-linejoin: miter"/>
   </g>
   <g id="text_1">
    <g clip-path="url(#p5ef6de9560)">
     <!-- ${|k1⟩}$ -->
     <g transform="translate(96.623564 65.951049) scale(0.1625 -0.1625)">
      <defs>
       <path id="DejaVuSans-7c" d="M 1344 4891 
L 1344 -1509 
L 813 -1509 
L 813 4891 
L 1344 4891 
z
" transform="scale(0.015625)"/>
       <path id="DejaVuSans-Oblique-6b" d="M 1172 4863 
L 1747 4863 
L 1197 2028 
L 3169 3500 
L 3916 3500 
L 1716 1825 
L 3322 0 
L 2625 0 
L 1131 1709 
L 800 0 
L 225 0 
L 1172 4863 
z
" transform="scale(0.015625)"/>
       <path id="DejaVuSans-31" d="M 794 531 
L 1825 531 
L 1825 4091 
L 703 3866 
L 703 4441 
L 1819 4666 
L 2450 4666 
L 2450 531 
L 3481 531 
L 3481 0 
L 794 0 
L 794 531 
z
" transform="scale(0.015625)"/>
       <path id="DejaVuSans-27e9" d="M 1925 2006 
L 1044 -844 
L 513 -844 
L 1394 2006 
L 513 4856 
L 1044 4856 
L 1925 2006 
z
" transform="scale(0.015625)"/>
      </defs>
      <use xlink:href="#DejaVuSans-7c" transform="translate(0 0.578125)"/>
      <use xlink:href="#DejaVuSans-Oblique-6b" transform="translate(33.691406 0.578125)"/>
      <use xlink:href="#DejaVuSans-31" transform="translate(91.601562 0.578125)"/>
      <use xlink:href="#DejaVuSans-27e9" transform="translate(155.224609 0.578125)"/>
     </g>
    </g>
   </g>
   <g id="text_2">
    <g clip-path="url(#p5ef6de9560)">
     <!-- ${|k2⟩}$ -->
     <g transform="translate(96.623564 112.305049) scale(0.1625 -0.1625)">
      <defs>
       <path id="DejaVuSans-32" d="M 1228 531 
L 3431 531 
L 3431 0 
L 469 0 
L 469 531 
Q 828 903 1448 1529 
Q 2069 2156 2228 2338 
Q 2531 2678 2651 2914 
Q 2772 3150 2772 3378 
Q 2772 3750 2511 3984 
Q 2250 4219 1831 4219 
Q 1534 4219 1204 4116 
Q 875 4013 500 3803 
L 500 4441 
Q 881 4594 1212 4672 
Q 1544 4750 1819 4750 
Q 2544 4750 2975 4387 
Q 3406 4025 3406 3419 
Q 3406 3131 3298 2873 
Q 3191 2616 2906 2266 
Q 2828 2175 2409 1742 
Q 1991 1309 1228 531 
z
" transform="scale(0.015625)"/>
      </defs>
      <use xlink:href="#DejaVuSans-7c" transform="translate(0 0.578125)"/>
      <use xlink:href="#DejaVuSans-Oblique-6b" transform="translate(33.691406 0.578125)"/>
      <use xlink:href="#DejaVuSans-32" transform="translate(91.601562 0.578125)"/>
      <use xlink:href="#DejaVuSans-27e9" transform="translate(155.224609 0.578125)"/>
     </g>
    </g>
   </g>
   <g id="text_3">
    <g clip-path="url(#p5ef6de9560)">
     <!-- ${|k3⟩}$ -->
     <g transform="translate(96.623564 158.659048) scale(0.1625 -0.1625)">
      <defs>
       <path id="DejaVuSans-33" d="M 2597 2516 
Q 3050 2419 3304 2112 
Q 3559 1806 3559 1356 
Q 3559 666 3084 287 
Q 2609 -91 1734 -91 
Q 1441 -91 1130 -33 
Q 819 25 488 141 
L 488 750 
Q 750 597 1062 519 
Q 1375 441 1716 441 
Q 2309 441 2620 675 
Q 2931 909 2931 1356 
Q 2931 1769 2642 2001 
Q 2353 2234 1838 2234 
L 1294 2234 
L 1294 2753 
L 1863 2753 
Q 2328 2753 2575 2939 
Q 2822 3125 2822 3475 
Q 2822 3834 2567 4026 
Q 2313 4219 1838 4219 
Q 1578 4219 1281 4162 
Q 984 4106 628 3988 
L 628 4550 
Q 988 4650 1302 4700 
Q 1616 4750 1894 4750 
Q 2613 4750 3031 4423 
Q 3450 4097 3450 3541 
Q 3450 3153 3228 2886 
Q 3006 2619 2597 2516 
z
" transform="scale(0.015625)"/>
      </defs>
      <use xlink:href="#DejaVuSans-7c" transform="translate(0 0.578125)"/>
      <use xlink:href="#DejaVuSans-Oblique-6b" transform="translate(33.691406 0.578125)"/>
      <use xlink:href="#DejaVuSans-33" transform="translate(91.601562 0.578125)"/>
      <use xlink:href="#DejaVuSans-27e9" transform="translate(155.224609 0.578125)"/>
     </g>
    </g>
   </g>
   <g id="text_4">
    <g clip-path="url(#p5ef6de9560)">
     <!-- H -->
     <g transform="translate(157.72482 65.231987) scale(0.13 -0.13)">
      <defs>
       <path id="DejaVuSans-48" d="M 628 4666 
L 1259 4666 
L 1259 2753 
L 3553 2753 
L 3553 4666 
L 4184 4666 
L 4184 0 
L 3553 0 
L 3553 2222 
L 1259 2222 
L 1259 0 
L 628 0 
L 628 4666 
z
" transform="scale(0.015625)"/>
      </defs>
      <use xlink:href="#DejaVuSans-48"/>
     </g>
    </g>
   </g>
   <g id="text_5">
    <g clip-path="url(#p5ef6de9560)">
     <!-- R2 -->
     <g style="fill: #ffffff" transform="translate(200.314913 65.231987) scale(0.13 -0.13)">
      <defs>
       <path id="DejaVuSans-52" d="M 2841 2188 
Q 3044 2119 3236 1894 
Q 3428 1669 3622 1275 
L 4263 0 
L 3584 0 
L 2988 1197 
Q 2756 1666 2539 1819 
Q 2322 1972 1947 1972 
L 1259 1972 
L 1259 0 
L 628 0 
L 628 4666 
L 2053 4666 
Q 2853 4666 3247 4331 
Q 3641 3997 3641 3322 
Q 3641 2881 3436 2590 
Q 3231 2300 2841 2188 
z
M 1259 4147 
L 1259 2491 
L 2053 2491 
Q 2509 2491 2742 2702 
Q 2975 2913 2975 3322 
Q 2975 3731 2742 3939 
Q 2509 4147 2053 4147 
L 1259 4147 
z
" transform="scale(0.015625)"/>
      </defs>
      <use xlink:href="#DejaVuSans-52"/>
      <use xlink:href="#DejaVuSans-32" transform="translate(69.482422 0)"/>
     </g>
    </g>
   </g>
   <g id="text_6">
    <g clip-path="url(#p5ef6de9560)">
     <!-- R3 -->
     <g style="fill: #ffffff" transform="translate(246.668913 65.231987) scale(0.13 -0.13)">
      <use xlink:href="#DejaVuSans-52"/>
      <use xlink:href="#DejaVuSans-33" transform="translate(69.482422 0)"/>
     </g>
    </g>
   </g>
   <g id="text_7">
    <g clip-path="url(#p5ef6de9560)">
     <!-- H -->
     <g transform="translate(296.786818 111.585986) scale(0.13 -0.13)">
      <use xlink:href="#DejaVuSans-48"/>
     </g>
    </g>
   </g>
   <g id="text_8">
    <g clip-path="url(#p5ef6de9560)">
     <!-- R2 -->
     <g style="fill: #ffffff" transform="translate(339.376912 111.585986) scale(0.13 -0.13)">
      <use xlink:href="#DejaVuSans-52"/>
      <use xlink:href="#DejaVuSans-32" transform="translate(69.482422 0)"/>
     </g>
    </g>
   </g>
   <g id="text_9">
    <g clip-path="url(#p5ef6de9560)">
     <!-- H -->
     <g transform="translate(389.494817 157.939985) scale(0.13 -0.13)">
      <use xlink:href="#DejaVuSans-48"/>
     </g>
    </g>
   </g>
  </g>
 </g>
 <defs>
  <clipPath id="p5ef6de9560">
   <rect x="66.957837" y="24.5616" width="404.372822" height="157.603598"/>
  </clipPath>
 </defs>
</svg>
