<?xml version="1.0" encoding="utf-8" standalone="no"?>
<!DOCTYPE svg PUBLIC "-//W3C//DTD SVG 1.1//EN"
  "http://www.w3.org/Graphics/SVG/1.1/DTD/svg11.dtd">
<svg xmlns:xlink="http://www.w3.org/1999/xlink" width="164.25028pt" height="144.479998pt" viewBox="0 0 164.25028 144.479998" xmlns="http://www.w3.org/2000/svg" version="1.1">
 <metadata>
  <rdf:RDF xmlns:dc="http://purl.org/dc/elements/1.1/" xmlns:cc="http://creativecommons.org/ns#" xmlns:rdf="http://www.w3.org/1999/02/22-rdf-syntax-ns#">
   <cc:Work>
    <dc:type rdf:resource="http://purl.org/dc/dcmitype/StillImage"/>
    <dc:date>2025-06-19T23:31:03.820921</dc:date>
    <dc:format>image/svg+xml</dc:format>
    <dc:creator>
     <cc:Agent>
      <dc:title>Matplotlib v3.10.3, https://matplotlib.org/</dc:title>
     </cc:Agent>
    </dc:creator>
   </cc:Work>
  </rdf:RDF>
 </metadata>
 <defs>
  <style type="text/css">*{stroke-linejoin: round; stroke-linecap: butt}</style>
 </defs>
 <g id="figure_1">
  <g id="patch_1">
   <path d="M 0 144.479998 
L 164.25028 144.479998 
L 164.25028 0 
L 0 0 
z
" style="fill: #ffffff"/>
  </g>
  <g id="axes_1">
   <g id="line2d_1">
    <path d="M 91.789827 54.420799 
L 142.779226 54.420799 
" clip-path="url(#p81d42306b8)" style="fill: none; stroke: #000000; stroke-width: 2; stroke-linecap: square"/>
   </g>
   <g id="line2d_2">
    <path d="M 91.789827 100.774799 
L 142.779226 100.774799 
" clip-path="url(#p81d42306b8)" style="fill: none; stroke: #000000; stroke-width: 2; stroke-linecap: square"/>
   </g>
   <g id="patch_2">
    <path d="M 87.154427 31.2438 
L -1071.695558 31.2438 
L -1071.695558 170.305798 
L 87.154427 170.305798 
z
" clip-path="url(#p81d42306b8)" style="fill: #ffffff; stroke: #ffffff; stroke-width: 1.5; stroke-linejoin: miter"/>
   </g>
   <g id="line2d_3">
    <path d="M 116.820987 100.774799 
L 116.820987 54.420799 
" clip-path="url(#p81d42306b8)" style="fill: none; stroke: #9f1853; stroke-width: 2; stroke-linecap: square"/>
   </g>
   <g id="patch_3">
    <path d="M 116.820987 58.940314 
C 118.019576 58.940314 119.169236 58.46411 120.016766 57.616579 
C 120.864297 56.769048 121.340501 55.619389 121.340501 54.420799 
C 121.340501 53.22221 120.864297 52.07255 120.016766 51.22502 
C 119.169236 50.377489 118.019576 49.901284 116.820987 49.901284 
C 115.622397 49.901284 114.472738 50.377489 113.625207 51.22502 
C 112.777676 52.07255 112.301472 53.22221 112.301472 54.420799 
C 112.301472 55.619389 112.777676 56.769048 113.625207 57.616579 
C 114.472738 58.46411 115.622397 58.940314 116.820987 58.940314 
z
" clip-path="url(#p81d42306b8)" style="fill: #9f1853; stroke: #9f1853; stroke-width: 1.5; stroke-linejoin: miter"/>
   </g>
   <g id="patch_4">
    <path d="M 101.755937 115.839848 
L 131.886036 115.839848 
L 131.886036 85.709749 
L 101.755937 85.709749 
z
" clip-path="url(#p81d42306b8)" style="fill: #9f1853; stroke: #9f1853; stroke-width: 1.5; stroke-linejoin: miter"/>
   </g>
   <g id="text_1">
    <g clip-path="url(#p81d42306b8)">
     <!-- ${|x1⟩}$ -->
     <g transform="translate(50.669027 58.727049) scale(0.1625 -0.1625)">
      <defs>
       <path id="DejaVuSans-7c" d="M 1344 4891 
L 1344 -1509 
L 813 -1509 
L 813 4891 
L 1344 4891 
z
" transform="scale(0.015625)"/>
       <path id="DejaVuSans-Oblique-78" d="M 3841 3500 
L 2234 1784 
L 3219 0 
L 2559 0 
L 1819 1388 
L 531 0 
L -166 0 
L 1556 1844 
L 641 3500 
L 1300 3500 
L 1972 2234 
L 3144 3500 
L 3841 3500 
z
" transform="scale(0.015625)"/>
       <path id="DejaVuSans-31" d="M 794 531 
L 1825 531 
L 1825 4091 
L 703 3866 
L 703 4441 
L 1819 4666 
L 2450 4666 
L 2450 531 
L 3481 531 
L 3481 0 
L 794 0 
L 794 531 
z
" transform="scale(0.015625)"/>
       <path id="DejaVuSans-27e9" d="M 1925 2006 
L 1044 -844 
L 513 -844 
L 1394 2006 
L 513 4856 
L 1044 4856 
L 1925 2006 
z
" transform="scale(0.015625)"/>
      </defs>
      <use xlink:href="#DejaVuSans-7c" transform="translate(0 0.578125)"/>
      <use xlink:href="#DejaVuSans-Oblique-78" transform="translate(33.691406 0.578125)"/>
      <use xlink:href="#DejaVuSans-31" transform="translate(92.871094 0.578125)"/>
      <use xlink:href="#DejaVuSans-27e9" transform="translate(156.494141 0.578125)"/>
     </g>
    </g>
   </g>
   <g id="text_2">
    <g clip-path="url(#p81d42306b8)">
     <!-- ${|x2⟩}$ -->
     <g transform="translate(50.669027 105.081049) scale(0.1625 -0.1625)">
      <defs>
       <path id="DejaVuSans-32" d="M 1228 531 
L 3431 531 
L 3431 0 
L 469 0 
L 469 531 
Q 828 903 1448 1529 
Q 2069 2156 2228 2338 
Q 2531 2678 2651 2914 
Q 2772 3150 2772 3378 
Q 2772 3750 2511 3984 
Q 2250 4219 1831 4219 
Q 1534 4219 1204 4116 
Q 875 4013 500 3803 
L 500 4441 
Q 881 4594 1212 4672 
Q 1544 4750 1819 4750 
Q 2544 4750 2975 4387 
Q 3406 4025 3406 3419 
Q 3406 3131 3298 2873 
Q 3191 2616 2906 2266 
Q 2828 2175 2409 1742 
Q 1991 1309 1228 531 
z
" transform="scale(0.015625)"/>
      </defs>
      <use xlink:href="#DejaVuSans-7c" transform="translate(0 0.578125)"/>
      <use xlink:href="#DejaVuSans-Oblique-78" transform="translate(33.691406 0.578125)"/>
      <use xlink:href="#DejaVuSans-32" transform="translate(92.871094 0.578125)"/>
      <use xlink:href="#DejaVuSans-27e9" transform="translate(156.494141 0.578125)"/>
     </g>
    </g>
   </g>
   <g id="text_3">
    <g clip-path="url(#p81d42306b8)">
     <!-- A -->
     <g style="fill: #ffffff" transform="translate(112.37458 104.361986) scale(0.13 -0.13)">
      <defs>
       <path id="DejaVuSans-41" d="M 2188 4044 
L 1331 1722 
L 3047 1722 
L 2188 4044 
z
M 1831 4666 
L 2547 4666 
L 4325 0 
L 3669 0 
L 3244 1197 
L 1141 1197 
L 716 0 
L 50 0 
L 1831 4666 
z
" transform="scale(0.015625)"/>
      </defs>
      <use xlink:href="#DejaVuSans-41"/>
     </g>
    </g>
   </g>
  </g>
 </g>
 <defs>
  <clipPath id="p81d42306b8">
   <rect x="20.941911" y="17.3376" width="126.472715" height="111.249599"/>
  </clipPath>
 </defs>
</svg>
